<?xml version="1.0" encoding="UTF-8" standalone="no"?>
<!-- Created with Inkscape (http://www.inkscape.org/) -->

<svg
  width="200.0px"
  height="200.0px"
  viewBox="0 0 200.0 200.0"
  version="1.1"
  id="SVGRoot"
  sodipodi:docname="07_hearts.svg"
  inkscape:version="1.2.2 (b0a8486541, 2022-12-01)"
  xmlns:inkscape="http://www.inkscape.org/namespaces/inkscape"
  xmlns:sodipodi="http://sodipodi.sourceforge.net/DTD/sodipodi-0.dtd"
  xmlns:xlink="http://www.w3.org/1999/xlink"
  xmlns="http://www.w3.org/2000/svg"
  xmlns:svg="http://www.w3.org/2000/svg"
>
  <sodipodi:namedview
    id="namedview28223"
    pagecolor="#ffffff"
    bordercolor="#666666"
    borderopacity="1.0"
    inkscape:showpageshadow="2"
    inkscape:pageopacity="0.0"
    inkscape:pagecheckerboard="0"
    inkscape:deskcolor="#d1d1d1"
    inkscape:document-units="px"
    showgrid="true"
    inkscape:zoom="3.011083"
    inkscape:cx="113.24829"
    inkscape:cy="98.635607"
    inkscape:window-width="1920"
    inkscape:window-height="1011"
    inkscape:window-x="0"
    inkscape:window-y="32"
    inkscape:window-maximized="1"
    inkscape:current-layer="layer1"
  >
    <inkscape:grid type="xygrid" id="grid28229" />
  </sodipodi:namedview>
  <defs id="defs28218">
    <linearGradient inkscape:collect="always" id="linearGradient46319">
      <stop style="stop-color: #b50e34; stop-opacity: 1" offset="0" id="stop46315" />
      <stop style="stop-color: #671023; stop-opacity: 0.12267456" offset="1" id="stop46317" />
    </linearGradient>
    <linearGradient inkscape:collect="always" id="linearGradient32226">
      <stop style="stop-color: #ff9c0e; stop-opacity: 1" offset="0" id="stop32222" />
      <stop style="stop-color: #d30dae; stop-opacity: 1" offset="1" id="stop32224" />
    </linearGradient>
    <linearGradient
      inkscape:collect="always"
      xlink:href="#linearGradient32226"
      id="linearGradient32958"
      x1="0.06200644"
      y1="100.29887"
      x2="199.96877"
      y2="100.29887"
      gradientUnits="userSpaceOnUse"
    />
    <radialGradient
      inkscape:collect="always"
      xlink:href="#linearGradient46319"
      id="radialGradient371"
      gradientUnits="userSpaceOnUse"
      gradientTransform="matrix(1,0,0,0.89897849,0,8.7256834)"
      cx="98.749155"
      cy="86.374505"
      fx="98.749155"
      fy="86.374505"
      r="58.737778"
    />
    <radialGradient
      inkscape:collect="always"
      xlink:href="#linearGradient46319"
      id="radialGradient373"
      gradientUnits="userSpaceOnUse"
      gradientTransform="matrix(1,0,0,0.89897849,0,8.7256834)"
      cx="98.749155"
      cy="86.374505"
      fx="98.749155"
      fy="86.374505"
      r="58.737778"
    />
    <radialGradient
      inkscape:collect="always"
      xlink:href="#linearGradient46319"
      id="radialGradient375"
      gradientUnits="userSpaceOnUse"
      gradientTransform="matrix(1,0,0,0.89897849,0,8.7256834)"
      cx="98.749155"
      cy="86.374505"
      fx="98.749155"
      fy="86.374505"
      r="58.737778"
    />
  </defs>
  <g inkscape:label="Layer 1" inkscape:groupmode="layer" id="layer1">
    <rect
      style="
        fill: url(#linearGradient32958);
        stroke-width: 3.00094;
        stroke-linecap: round;
        stroke-linejoin: bevel;
        stroke-miterlimit: 0;
        paint-order: markers fill stroke;
        fill-opacity: 1;
      "
      id="rect28651"
      width="199.90675"
      height="198.73886"
      x="0.06200644"
      y="0.92944288"
      rx="18.897638"
      ry="18.897638"
    />
    <g id="g324">
      <g
        id="g52188"
        transform="matrix(0.43686062,0,0,0.493555,10.070046,84.069163)"
        style="stroke: none; fill: #000000; fill-opacity: 1"
      >
        <path
          id="path52184"
          style="
            fill: #000000;
            fill-opacity: 1;
            stroke: none;
            stroke-width: 3.14919;
            stroke-linecap: round;
            stroke-linejoin: bevel;
            stroke-miterlimit: 0;
            stroke-opacity: 1;
            paint-order: markers fill stroke;
          "
          d="m 145.26461,35.229442 a 23.147569,56.212995 27.362806 0 0 -43.52735,41.494134 23.147569,56.212995 27.362806 0 0 -1.71679,3.640627 56.212996,23.147569 56.594471 0 0 -1.902349,-3.041018 56.212996,23.147569 56.594471 0 0 -50.529295,-35.56445 56.212996,23.147569 56.594471 0 0 10.449218,58.855465 56.212996,23.147569 56.594471 0 0 50.529296,35.56641 56.212996,23.147569 56.594471 0 0 1.45704,-1.05273 23.147569,56.212995 27.362806 0 0 34.02343,-39.462896 23.147569,56.212995 27.362806 0 0 4.19531,-59.628904 23.147569,56.212995 27.362806 0 0 -2.97851,-0.806638 z"
        />
        <path
          id="path52186"
          style="
            fill: #000000;
            fill-opacity: 1;
            stroke: none;
            stroke-width: 3.149;
            stroke-linecap: round;
            stroke-linejoin: bevel;
            stroke-miterlimit: 0;
            stroke-dasharray: none;
            stroke-opacity: 1;
            paint-order: markers fill stroke;
          "
          d="m 145.26461,35.229442 a 23.147569,56.212995 27.362806 0 0 -43.52735,41.494134 23.147569,56.212995 27.362806 0 0 -1.71679,3.640627 56.212996,23.147569 56.594471 0 0 -1.902349,-3.041018 56.212996,23.147569 56.594471 0 0 -50.529295,-35.56445 56.212996,23.147569 56.594471 0 0 10.449218,58.855465 56.212996,23.147569 56.594471 0 0 50.529296,35.56641 56.212996,23.147569 56.594471 0 0 1.45704,-1.05273 23.147569,56.212995 27.362806 0 0 34.02343,-39.462896 23.147569,56.212995 27.362806 0 0 4.19531,-59.628904 23.147569,56.212995 27.362806 0 0 -2.97851,-0.806638 z"
        />
      </g>
      <g
        id="g52196"
        transform="matrix(0.60562333,0,0,0.71262938,84.053206,76.443601)"
        style="stroke: none; fill: #000000; fill-opacity: 1"
      >
        <path
          id="path52192"
          style="
            fill: #000000;
            fill-opacity: 1;
            stroke: none;
            stroke-width: 3.14919;
            stroke-linecap: round;
            stroke-linejoin: bevel;
            stroke-miterlimit: 0;
            stroke-opacity: 1;
            paint-order: markers fill stroke;
          "
          d="m 145.26461,35.229442 a 23.147569,56.212995 27.362806 0 0 -43.52735,41.494134 23.147569,56.212995 27.362806 0 0 -1.71679,3.640627 56.212996,23.147569 56.594471 0 0 -1.902349,-3.041018 56.212996,23.147569 56.594471 0 0 -50.529295,-35.56445 56.212996,23.147569 56.594471 0 0 10.449218,58.855465 56.212996,23.147569 56.594471 0 0 50.529296,35.56641 56.212996,23.147569 56.594471 0 0 1.45704,-1.05273 23.147569,56.212995 27.362806 0 0 34.02343,-39.462896 23.147569,56.212995 27.362806 0 0 4.19531,-59.628904 23.147569,56.212995 27.362806 0 0 -2.97851,-0.806638 z"
        />
        <path
          id="path52194"
          style="
            fill: #000000;
            fill-opacity: 1;
            stroke: none;
            stroke-width: 3.149;
            stroke-linecap: round;
            stroke-linejoin: bevel;
            stroke-miterlimit: 0;
            stroke-dasharray: none;
            stroke-opacity: 1;
            paint-order: markers fill stroke;
          "
          d="m 145.26461,35.229442 a 23.147569,56.212995 27.362806 0 0 -43.52735,41.494134 23.147569,56.212995 27.362806 0 0 -1.71679,3.640627 56.212996,23.147569 56.594471 0 0 -1.902349,-3.041018 56.212996,23.147569 56.594471 0 0 -50.529295,-35.56445 56.212996,23.147569 56.594471 0 0 10.449218,58.855465 56.212996,23.147569 56.594471 0 0 50.529296,35.56641 56.212996,23.147569 56.594471 0 0 1.45704,-1.05273 23.147569,56.212995 27.362806 0 0 34.02343,-39.462896 23.147569,56.212995 27.362806 0 0 4.19531,-59.628904 23.147569,56.212995 27.362806 0 0 -2.97851,-0.806638 z"
        />
      </g>
      <g id="g52182" transform="translate(-2.3304069e-6)" style="stroke: none; fill: #000000; fill-opacity: 1">
        <path
          id="path33760"
          style="
            fill: #000000;
            fill-opacity: 1;
            stroke: none;
            stroke-width: 3.14919;
            stroke-linecap: round;
            stroke-linejoin: bevel;
            stroke-miterlimit: 0;
            stroke-opacity: 1;
            paint-order: markers fill stroke;
          "
          d="m 145.26461,35.229442 a 23.147569,56.212995 27.362806 0 0 -43.52735,41.494134 23.147569,56.212995 27.362806 0 0 -1.71679,3.640627 56.212996,23.147569 56.594471 0 0 -1.902349,-3.041018 56.212996,23.147569 56.594471 0 0 -50.529295,-35.56445 56.212996,23.147569 56.594471 0 0 10.449218,58.855465 56.212996,23.147569 56.594471 0 0 50.529296,35.56641 56.212996,23.147569 56.594471 0 0 1.45704,-1.05273 23.147569,56.212995 27.362806 0 0 34.02343,-39.462896 23.147569,56.212995 27.362806 0 0 4.19531,-59.628904 23.147569,56.212995 27.362806 0 0 -2.97851,-0.806638 z"
        />
        <path
          id="path42021"
          style="
            fill: #000000;
            fill-opacity: 1;
            stroke: none;
            stroke-width: 3.149;
            stroke-linecap: round;
            stroke-linejoin: bevel;
            stroke-miterlimit: 0;
            stroke-opacity: 1;
            paint-order: markers fill stroke;
            stroke-dasharray: none;
          "
          d="m 145.26461,35.229442 a 23.147569,56.212995 27.362806 0 0 -43.52735,41.494134 23.147569,56.212995 27.362806 0 0 -1.71679,3.640627 56.212996,23.147569 56.594471 0 0 -1.902349,-3.041018 56.212996,23.147569 56.594471 0 0 -50.529295,-35.56445 56.212996,23.147569 56.594471 0 0 10.449218,58.855465 56.212996,23.147569 56.594471 0 0 50.529296,35.56641 56.212996,23.147569 56.594471 0 0 1.45704,-1.05273 23.147569,56.212995 27.362806 0 0 34.02343,-39.462896 23.147569,56.212995 27.362806 0 0 4.19531,-59.628904 23.147569,56.212995 27.362806 0 0 -2.97851,-0.806638 z"
        />
      </g>
    </g>
    <g id="g369" transform="translate(0.42236951,-5.9709938)">
      <g id="g355" transform="matrix(0.43686062,0,0,0.493555,10.070046,84.069163)">
        <path
          id="path351"
          style="
            fill: #b50e34;
            fill-opacity: 1;
            stroke: #91d3fb;
            stroke-width: 3.14919;
            stroke-linecap: round;
            stroke-linejoin: bevel;
            stroke-miterlimit: 0;
            stroke-opacity: 1;
            paint-order: markers fill stroke;
          "
          d="m 145.26461,35.229442 a 23.147569,56.212995 27.362806 0 0 -43.52735,41.494134 23.147569,56.212995 27.362806 0 0 -1.71679,3.640627 56.212996,23.147569 56.594471 0 0 -1.902349,-3.041018 56.212996,23.147569 56.594471 0 0 -50.529295,-35.56445 56.212996,23.147569 56.594471 0 0 10.449218,58.855465 56.212996,23.147569 56.594471 0 0 50.529296,35.56641 56.212996,23.147569 56.594471 0 0 1.45704,-1.05273 23.147569,56.212995 27.362806 0 0 34.02343,-39.462896 23.147569,56.212995 27.362806 0 0 4.19531,-59.628904 23.147569,56.212995 27.362806 0 0 -2.97851,-0.806638 z"
        />
        <path
          id="path353"
          style="
            fill: url(#radialGradient371);
            fill-opacity: 1;
            stroke: #91d3fb;
            stroke-width: 3.149;
            stroke-linecap: round;
            stroke-linejoin: bevel;
            stroke-miterlimit: 0;
            stroke-dasharray: none;
            stroke-opacity: 1;
            paint-order: markers fill stroke;
          "
          d="m 145.26461,35.229442 a 23.147569,56.212995 27.362806 0 0 -43.52735,41.494134 23.147569,56.212995 27.362806 0 0 -1.71679,3.640627 56.212996,23.147569 56.594471 0 0 -1.902349,-3.041018 56.212996,23.147569 56.594471 0 0 -50.529295,-35.56445 56.212996,23.147569 56.594471 0 0 10.449218,58.855465 56.212996,23.147569 56.594471 0 0 50.529296,35.56641 56.212996,23.147569 56.594471 0 0 1.45704,-1.05273 23.147569,56.212995 27.362806 0 0 34.02343,-39.462896 23.147569,56.212995 27.362806 0 0 4.19531,-59.628904 23.147569,56.212995 27.362806 0 0 -2.97851,-0.806638 z"
        />
      </g>
      <g id="g361" transform="matrix(0.60562333,0,0,0.71262938,84.053206,76.443601)">
        <path
          id="path357"
          style="
            fill: #b50e34;
            fill-opacity: 1;
            stroke: #91d3fb;
            stroke-width: 3.14919;
            stroke-linecap: round;
            stroke-linejoin: bevel;
            stroke-miterlimit: 0;
            stroke-opacity: 1;
            paint-order: markers fill stroke;
          "
          d="m 145.26461,35.229442 a 23.147569,56.212995 27.362806 0 0 -43.52735,41.494134 23.147569,56.212995 27.362806 0 0 -1.71679,3.640627 56.212996,23.147569 56.594471 0 0 -1.902349,-3.041018 56.212996,23.147569 56.594471 0 0 -50.529295,-35.56445 56.212996,23.147569 56.594471 0 0 10.449218,58.855465 56.212996,23.147569 56.594471 0 0 50.529296,35.56641 56.212996,23.147569 56.594471 0 0 1.45704,-1.05273 23.147569,56.212995 27.362806 0 0 34.02343,-39.462896 23.147569,56.212995 27.362806 0 0 4.19531,-59.628904 23.147569,56.212995 27.362806 0 0 -2.97851,-0.806638 z"
        />
        <path
          id="path359"
          style="
            fill: url(#radialGradient373);
            fill-opacity: 1;
            stroke: #91d3fb;
            stroke-width: 3.149;
            stroke-linecap: round;
            stroke-linejoin: bevel;
            stroke-miterlimit: 0;
            stroke-dasharray: none;
            stroke-opacity: 1;
            paint-order: markers fill stroke;
          "
          d="m 145.26461,35.229442 a 23.147569,56.212995 27.362806 0 0 -43.52735,41.494134 23.147569,56.212995 27.362806 0 0 -1.71679,3.640627 56.212996,23.147569 56.594471 0 0 -1.902349,-3.041018 56.212996,23.147569 56.594471 0 0 -50.529295,-35.56445 56.212996,23.147569 56.594471 0 0 10.449218,58.855465 56.212996,23.147569 56.594471 0 0 50.529296,35.56641 56.212996,23.147569 56.594471 0 0 1.45704,-1.05273 23.147569,56.212995 27.362806 0 0 34.02343,-39.462896 23.147569,56.212995 27.362806 0 0 4.19531,-59.628904 23.147569,56.212995 27.362806 0 0 -2.97851,-0.806638 z"
        />
      </g>
      <g id="g367" transform="translate(-2.3304069e-6)">
        <path
          id="path363"
          style="
            fill: #b50e34;
            fill-opacity: 1;
            stroke: #91d3fb;
            stroke-width: 3.14919;
            stroke-linecap: round;
            stroke-linejoin: bevel;
            stroke-miterlimit: 0;
            stroke-opacity: 1;
            paint-order: markers fill stroke;
          "
          d="m 145.26461,35.229442 a 23.147569,56.212995 27.362806 0 0 -43.52735,41.494134 23.147569,56.212995 27.362806 0 0 -1.71679,3.640627 56.212996,23.147569 56.594471 0 0 -1.902349,-3.041018 56.212996,23.147569 56.594471 0 0 -50.529295,-35.56445 56.212996,23.147569 56.594471 0 0 10.449218,58.855465 56.212996,23.147569 56.594471 0 0 50.529296,35.56641 56.212996,23.147569 56.594471 0 0 1.45704,-1.05273 23.147569,56.212995 27.362806 0 0 34.02343,-39.462896 23.147569,56.212995 27.362806 0 0 4.19531,-59.628904 23.147569,56.212995 27.362806 0 0 -2.97851,-0.806638 z"
        />
        <path
          id="path365"
          style="
            fill: url(#radialGradient375);
            fill-opacity: 1;
            stroke: #91d3fb;
            stroke-width: 3.149;
            stroke-linecap: round;
            stroke-linejoin: bevel;
            stroke-miterlimit: 0;
            stroke-dasharray: none;
            stroke-opacity: 1;
            paint-order: markers fill stroke;
          "
          d="m 145.26461,35.229442 a 23.147569,56.212995 27.362806 0 0 -43.52735,41.494134 23.147569,56.212995 27.362806 0 0 -1.71679,3.640627 56.212996,23.147569 56.594471 0 0 -1.902349,-3.041018 56.212996,23.147569 56.594471 0 0 -50.529295,-35.56445 56.212996,23.147569 56.594471 0 0 10.449218,58.855465 56.212996,23.147569 56.594471 0 0 50.529296,35.56641 56.212996,23.147569 56.594471 0 0 1.45704,-1.05273 23.147569,56.212995 27.362806 0 0 34.02343,-39.462896 23.147569,56.212995 27.362806 0 0 4.19531,-59.628904 23.147569,56.212995 27.362806 0 0 -2.97851,-0.806638 z"
        />
      </g>
    </g>
  </g>
</svg>
